<svg width="24" height="25" viewBox="0 0 24 25" fill="none" xmlns="http://www.w3.org/2000/svg">
<path fill-rule="evenodd" clip-rule="evenodd" d="M12 0.809082C5.3724 0.809082 0 6.18988 0 12.8295C0 18.1395 3.438 22.6455 8.2068 24.2343C8.8068 24.3447 9.0252 23.9739 9.0252 23.6547C9.0252 23.3703 9.0156 22.6131 9.0096 21.6111C5.6712 22.3371 4.9668 19.9995 4.9668 19.9995C4.422 18.6099 3.6348 18.2403 3.6348 18.2403C2.5452 17.4963 3.7176 17.5107 3.7176 17.5107C4.9212 17.5947 5.5548 18.7491 5.5548 18.7491C6.6252 20.5851 8.364 20.0547 9.0468 19.7475C9.1572 18.9711 9.4668 18.4419 9.81 18.1419C7.146 17.8383 4.344 16.8063 4.344 12.2007C4.344 10.8891 4.812 9.81508 5.5788 8.97508C5.4552 8.67148 5.0436 7.44868 5.6964 5.79508C5.6964 5.79508 6.7044 5.47108 8.9964 7.02628C9.97532 6.7593 10.9853 6.62331 12 6.62188C13.02 6.62668 14.046 6.75988 15.0048 7.02628C17.2956 5.47108 18.3012 5.79388 18.3012 5.79388C18.9564 7.44868 18.5436 8.67148 18.4212 8.97508C19.1892 9.81508 19.6548 10.8891 19.6548 12.2007C19.6548 16.8183 16.848 17.8347 14.1756 18.1323C14.6064 18.5031 14.9892 19.2363 14.9892 20.3583C14.9892 21.9639 14.9748 23.2611 14.9748 23.6547C14.9748 23.9763 15.1908 24.3507 15.8004 24.2331C18.19 23.4316 20.2672 21.8994 21.7386 19.8531C23.2099 17.8068 24.001 15.3499 24 12.8295C24 6.18988 18.6264 0.809082 12 0.809082Z" fill="#98A2B3"/>
</svg>
