<svg width="280" height="254" viewBox="0 0 280 254" fill="none" xmlns="http://www.w3.org/2000/svg">
<path d="M21.6937 170.274C21.9956 171.949 21.8183 172.593 22.0635 173.214C47.373 210.551 81.7315 234.926 126.625 242.453C137.957 244.382 149.553 243.336 160.802 239.771C184.978 232.341 200.779 210.981 200.91 185.811C201.053 172.693 198.894 160.122 191.101 149.122C184.929 148.608 178.769 148.304 172.998 147.345C163.589 145.736 155.724 141.295 150.612 132.9C146.682 126.768 146.342 120.442 149.541 116.887C153.739 112.221 159.654 111.904 164.66 114.384C171.623 117.816 178.21 122.114 184.385 126.646C188.357 129.604 191.753 133.651 195.125 137.276C218.803 132.409 227.731 109.304 216.353 82.8493C212.928 82.1875 209.291 81.5369 205.855 80.6642C193.165 77.1168 183.24 69.8261 178.124 57.4137C176.174 52.655 175.257 47.4179 179.467 42.9627C182.677 39.6185 188.592 39.3008 194.688 42.3566C204.277 47.3393 211.267 55.2106 217.446 63.7597C219.517 66.8203 221.588 69.8809 223.448 72.9528C260.19 66.7502 284.606 32.2406 268.075 0.564624C270.832 0.627965 273.145 0.292296 274.458 1.0676C275.993 2.0424 276.962 4.31631 277.487 6.19123C281.829 23.9315 280.612 40.7018 268.251 55.1102C259.088 65.9636 247.632 73.5569 234.362 78.9217C232.494 79.6563 230.627 80.391 228.771 81.3365C228.56 81.3478 228.371 81.7808 227.783 82.6582C228.096 84.5445 228.221 86.8638 228.768 89.1604C234.722 117.175 227.909 132.343 202.206 146.834C203.187 149.319 204.19 152.225 205.394 154.909C211.758 170.849 213.053 187.062 208.444 203.803C201.01 231.057 178.913 249.583 149.863 253.046C134.076 254.951 118.719 253.027 103.626 248.129C67.1783 236.13 37.8596 214.868 17.6466 181.698C16.4998 180.068 15.5529 178.216 14.4061 176.586C14.1835 176.387 13.7496 176.198 12.4482 175.634C11.1433 182.894 12.1394 189.607 12.9243 196.331C13.4866 202.856 14.4828 209.569 15.2903 216.715C9.76394 216.377 7.49296 213.539 6.03298 210.023C4.53899 205.874 2.62254 201.748 2.1848 197.542C1.15076 186.179 0.316615 174.594 0.327502 162.963C0.474258 153.863 5.19702 151.072 12.8058 154.681C28.9022 162.486 45.01 170.502 61.1178 178.518C63.732 179.857 65.9464 181.642 69.0284 183.802C64.5962 188.058 61.1257 186.552 57.8777 185.247C46.1534 179.956 34.463 175.297 21.6937 170.274ZM186.144 48.9477C188.826 63.3939 198.608 71.961 211.739 71.89C204.881 62.5315 198.679 53.5607 186.144 48.9477ZM157.229 121.972C160.854 134.253 169.621 139.703 182.439 137.746C175.249 130.097 168.538 123.479 157.229 121.972Z" fill="#44A09C"/>
</svg>
