<svg width="22" height="23" viewBox="0 0 22 23" fill="none" xmlns="http://www.w3.org/2000/svg">
<path d="M15.5833 13.1732C16.4656 13.17 17.3282 12.9122 18.0675 12.4307L18.3333 12.2566C18.481 12.1564 18.6191 12.0429 18.7458 11.9174L18.9383 11.7341C19.0997 11.5695 19.2468 11.3916 19.3783 11.2024L19.4333 11.1291C19.5818 10.9101 19.7077 10.6767 19.8092 10.4324C19.8422 10.3644 19.8697 10.2939 19.8917 10.2216C19.9678 10.0342 20.0291 9.84106 20.075 9.64405L20.13 9.41488C20.1648 9.14135 20.177 8.86542 20.1667 8.58988V2.17322L17.4167 4.92322H13.75L11 2.17322V8.58988C11 9.80546 11.4829 10.9712 12.3424 11.8308C13.202 12.6903 14.3678 13.1732 15.5833 13.1732ZM17.4167 6.75655C17.598 6.75655 17.7752 6.81031 17.9259 6.91104C18.0767 7.01176 18.1942 7.15493 18.2636 7.32242C18.3329 7.48992 18.3511 7.67423 18.3157 7.85205C18.2803 8.02987 18.193 8.1932 18.0648 8.3214C17.9367 8.4496 17.7733 8.5369 17.5955 8.57227C17.4177 8.60764 17.2334 8.58949 17.0659 8.52011C16.8984 8.45073 16.7552 8.33324 16.6545 8.18249C16.5538 8.03175 16.5 7.85452 16.5 7.67322C16.5 7.4301 16.5966 7.19695 16.7685 7.02504C16.9404 6.85313 17.1736 6.75655 17.4167 6.75655ZM13.75 6.75655C13.9313 6.75655 14.1085 6.81031 14.2593 6.91104C14.41 7.01176 14.5275 7.15493 14.5969 7.32242C14.6663 7.48992 14.6844 7.67423 14.6491 7.85205C14.6137 8.02987 14.5264 8.1932 14.3982 8.3214C14.27 8.4496 14.1066 8.5369 13.9288 8.57227C13.751 8.60764 13.5667 8.58949 13.3992 8.52011C13.2317 8.45073 13.0885 8.33324 12.9878 8.18249C12.8871 8.03175 12.8333 7.85452 12.8333 7.67322C12.8333 7.4301 12.9299 7.19695 13.1018 7.02504C13.2737 6.85313 13.5069 6.75655 13.75 6.75655Z" fill="black"/>
<path d="M10.0833 20.5066V15.9232H7.33325V20.5066H4.58325V11.2482C4.11701 11.1805 3.67147 11.0106 3.27849 10.7507C2.8855 10.4909 2.55477 10.1474 2.30992 9.74488C2.01394 9.25749 1.84968 8.70154 1.83325 8.13155C1.84987 7.6755 1.95962 7.22767 2.15573 6.8156C2.35184 6.40353 2.63018 6.03593 2.97362 5.73542C3.31706 5.43491 3.71835 5.20783 4.1528 5.06816C4.58726 4.92848 5.04569 4.87915 5.49992 4.92322C5.74451 4.93792 5.98944 4.90057 6.21853 4.81364C6.44762 4.72671 6.65567 4.59217 6.82894 4.4189C7.0022 4.24564 7.13674 4.03759 7.22367 3.8085C7.31061 3.5794 7.34795 3.33448 7.33325 3.08988C7.33325 2.84677 7.42983 2.61361 7.60174 2.4417C7.77365 2.26979 8.0068 2.17322 8.24992 2.17322C8.49303 2.17322 8.72619 2.26979 8.8981 2.4417C9.07001 2.61361 9.16658 2.84677 9.16658 3.08988C9.18051 3.57518 9.09519 4.05821 8.91586 4.50937C8.73652 4.96053 8.46694 5.37031 8.12364 5.71361C7.78035 6.05691 7.37056 6.32649 6.9194 6.50582C6.46824 6.68516 5.98521 6.77048 5.49992 6.75655C3.84075 6.75655 3.66659 7.81988 3.66659 8.14072C3.66659 8.46155 3.83159 9.50655 5.49992 9.50655H10.1658C10.3004 10.2962 10.6059 11.047 11.061 11.7063C11.516 12.3656 12.1096 12.9175 12.8002 13.3235C13.4908 13.7295 14.2617 13.9797 15.0591 14.0567C15.8565 14.1336 16.6611 14.0355 17.4166 13.7691V20.5066H14.6666V15.9232H12.8333V20.5066H10.0833Z" fill="black"/>
</svg>
