<svg width="22" height="23" viewBox="0 0 22 23" fill="none" xmlns="http://www.w3.org/2000/svg">
<g clip-path="url(#clip0_97_48469)">
<path d="M19 4.98022L5 18.9802M9 6.48022C9 7.86094 7.88071 8.98022 6.5 8.98022C5.11929 8.98022 4 7.86094 4 6.48022C4 5.09951 5.11929 3.98022 6.5 3.98022C7.88071 3.98022 9 5.09951 9 6.48022ZM20 17.4802C20 18.8609 18.8807 19.9802 17.5 19.9802C16.1193 19.9802 15 18.8609 15 17.4802C15 16.0995 16.1193 14.9802 17.5 14.9802C18.8807 14.9802 20 16.0995 20 17.4802Z" stroke="#050505" stroke-width="2" stroke-linecap="round" stroke-linejoin="round"/>
</g>
<defs>
<clipPath id="clip0_97_48469">
<rect width="22" height="22" fill="white" transform="translate(0 0.339844)"/>
</clipPath>
</defs>
</svg>
