<svg width="22" height="23" viewBox="0 0 22 23" fill="none" xmlns="http://www.w3.org/2000/svg">
<path d="M13.75 10.9604V5.83988H15.5833V4.00655C15.5833 3.52032 15.3902 3.05401 15.0464 2.71019C14.7025 2.36637 14.2362 2.17322 13.75 2.17322H8.25C7.76377 2.17322 7.29746 2.36637 6.95364 2.71019C6.60982 3.05401 6.41667 3.52032 6.41667 4.00655V5.83988H8.25V10.9604L5.76858 12.5251C5.6833 12.6101 5.61566 12.7111 5.56956 12.8224C5.52347 12.9336 5.49983 13.0528 5.5 13.1732V15.0066C5.5 15.2497 5.59658 15.4828 5.76849 15.6547C5.94039 15.8266 6.17355 15.9232 6.41667 15.9232H10.0833V18.6732L11 20.5066L11.9167 18.6732V15.9232H15.5833C15.8264 15.9232 16.0596 15.8266 16.2315 15.6547C16.4034 15.4828 16.5 15.2497 16.5 15.0066V13.1732C16.5002 13.0528 16.4765 12.9336 16.4304 12.8224C16.3843 12.7111 16.3167 12.6101 16.2314 12.5251L13.75 10.9604Z" fill="black"/>
</svg>
