<svg width="15" height="17" viewBox="0 0 15 17" fill="none" xmlns="http://www.w3.org/2000/svg">
<path d="M13.5806 7.37475C13.5806 12.2072 7.36743 16.3493 7.36743 16.3493C7.36743 16.3493 1.1543 12.2072 1.1543 7.37475C1.1543 5.72693 1.80889 4.14659 2.97408 2.9814C4.13927 1.81622 5.7196 1.16162 7.36743 1.16162C9.01525 1.16162 10.5956 1.81622 11.7608 2.9814C12.926 4.14659 13.5806 5.72693 13.5806 7.37475Z" stroke="#3C3F41" stroke-width="1.18345" stroke-linecap="round" stroke-linejoin="round"/>
<path d="M7.36743 9.44579C8.51123 9.44579 9.43847 8.51856 9.43847 7.37475C9.43847 6.23095 8.51123 5.30371 7.36743 5.30371C6.22362 5.30371 5.29638 6.23095 5.29638 7.37475C5.29638 8.51856 6.22362 9.44579 7.36743 9.44579Z" stroke="#3C3F41" stroke-width="1.18345" stroke-linecap="round" stroke-linejoin="round"/>
</svg>
