<svg width="47" height="46" viewBox="0 0 47 46" fill="none" xmlns="http://www.w3.org/2000/svg">
<rect x="3.5" y="3" width="40" height="40" rx="20" fill="#578887" fill-opacity="0.15"/>
<g clip-path="url(#clip0_1860_11911)">
<path d="M26.8334 26.3332L23.5 22.9999M23.5 22.9999L20.1667 26.3332M23.5 22.9999V30.4999M30.4917 28.3249C31.3045 27.8818 31.9466 27.1806 32.3166 26.3321C32.6866 25.4835 32.7635 24.5359 32.5352 23.6388C32.3069 22.7417 31.7863 21.9462 31.0556 21.3778C30.3249 20.8094 29.4257 20.5005 28.5 20.4999H27.45C27.1978 19.5243 26.7277 18.6185 26.075 17.8507C25.4223 17.0829 24.6041 16.4731 23.6818 16.0671C22.7595 15.661 21.7572 15.4694 20.7501 15.5065C19.7431 15.5436 18.7576 15.8085 17.8677 16.2813C16.9778 16.7541 16.2066 17.4225 15.6122 18.2362C15.0178 19.05 14.6156 19.9879 14.4358 20.9794C14.2561 21.9709 14.3034 22.9903 14.5744 23.961C14.8453 24.9316 15.3327 25.8281 16 26.5832" stroke="#578887" stroke-width="2" stroke-linecap="round" stroke-linejoin="round"/>
</g>
<rect x="3.5" y="3" width="40" height="40" rx="20" stroke="#578887" stroke-opacity="0.15" stroke-width="6"/>
<defs>
<clipPath id="clip0_1860_11911">
<rect width="20" height="20" fill="white" transform="translate(13.5 13)"/>
</clipPath>
</defs>
</svg>
