<svg width="44" height="41" viewBox="0 0 44 41" fill="none" xmlns="http://www.w3.org/2000/svg">
<path d="M23.3961 15.3426H22.5928C22.5928 15.3426 10.3749 15.3426 10.3749 31.3283C10.3749 45.8248 19.2278 40.5003 22.9944 37.6524C26.761 40.5003 35.614 45.8248 35.614 31.3283C35.614 15.3426 23.3961 15.3426 23.3961 15.3426ZM22.0846 36.8772C19.2565 34.572 11.1741 26.9586 17.113 23.1926C20.2894 21.1771 23.0723 25.8814 23.0723 25.8814C23.0723 25.8814 25.8307 21.1771 29.0317 23.1926C34.9787 26.9422 25.9003 35.3472 23.0723 37.6524C22.687 37.3587 22.351 37.0935 22.0887 36.8772H22.0846Z" fill="#BF716A"/>
<path d="M10.5 19.1705C12.0542 17.6234 11.5935 14.6564 9.47114 12.5436C7.34874 10.4308 4.36828 9.97222 2.8141 11.5194C1.25991 13.0665 1.72054 16.0335 3.84294 18.1463C5.96534 20.2591 8.94579 20.7177 10.5 19.1705Z" fill="#BF716A"/>
<path d="M17.5184 13.2582C19.9664 12.7152 21.3468 9.57562 20.6015 6.24567C19.8563 2.91572 17.2676 0.656405 14.8195 1.19935C12.3715 1.74229 10.9911 4.88189 11.7364 8.21184C12.4816 11.5418 15.0703 13.8011 17.5184 13.2582Z" fill="#BF716A"/>
<path d="M34.0712 8.55437C35.0749 5.29237 33.9445 2.05522 31.5464 1.324C29.1484 0.592774 26.3907 2.64437 25.387 5.90638C24.3833 9.16838 25.5137 12.4055 27.9117 13.1367C30.3098 13.868 33.0675 11.8164 34.0712 8.55437Z" fill="#BF716A"/>
<path d="M40.7019 17.7463C42.5234 15.9331 42.9191 13.3872 41.5858 12.0599C40.2525 10.7326 37.6951 11.1266 35.8736 12.9398C34.0521 14.7531 33.6564 17.299 34.9897 18.6263C36.323 19.9536 38.8804 19.5596 40.7019 17.7463Z" fill="#BF716A"/>
</svg>
