<svg width="22" height="23" viewBox="0 0 22 23" fill="none" xmlns="http://www.w3.org/2000/svg">
<path d="M7.79175 15.0065C8.55114 15.0065 9.16675 14.3909 9.16675 13.6315C9.16675 12.8721 8.55114 12.2565 7.79175 12.2565C7.03236 12.2565 6.41675 12.8721 6.41675 13.6315C6.41675 14.3909 7.03236 15.0065 7.79175 15.0065Z" fill="black"/>
<path d="M14.2083 15.0065C14.9676 15.0065 15.5833 14.3909 15.5833 13.6315C15.5833 12.8721 14.9676 12.2565 14.2083 12.2565C13.4489 12.2565 12.8333 12.8721 12.8333 13.6315C12.8333 14.3909 13.4489 15.0065 14.2083 15.0065Z" fill="black"/>
<path d="M17.2976 3.40155C17.0216 3.05136 16.6765 2.76162 16.2839 2.55032C15.8913 2.33902 15.4594 2.21066 15.0151 2.17322H6.98508C6.53741 2.20611 6.10176 2.33338 5.70679 2.54667C5.31181 2.75995 4.96645 3.05442 4.69341 3.41072C4.0837 4.07936 3.72138 4.93664 3.66675 5.83988V16.8399C3.66675 17.083 3.76333 17.3162 3.93523 17.4881C4.10714 17.66 4.3403 17.7566 4.58341 17.7566H6.41675L4.58341 20.5066H6.71008L7.33341 19.5899H14.6667L15.2901 20.5066H17.4167L15.5834 17.7566H17.4167C17.6599 17.7566 17.893 17.66 18.0649 17.4881C18.2368 17.3162 18.3334 17.083 18.3334 16.8399V5.83988C18.2914 4.92925 17.9239 4.06397 17.2976 3.40155ZM6.98508 4.00655H14.9784C15.345 4.09552 15.6692 4.30945 15.8951 4.61155C15.9781 4.71037 16.0547 4.81447 16.1242 4.92322H5.85758C5.92378 4.80935 6.00051 4.70194 6.08675 4.60238C6.30285 4.30018 6.62262 4.08809 6.98508 4.00655ZM5.50008 7.67322V6.75655H16.5001V9.50655H5.50008V7.67322ZM16.5001 15.9232H5.50008V11.3399H16.5001V15.9232Z" fill="black"/>
</svg>
