<svg width="22" height="23" viewBox="0 0 22 23" fill="none" xmlns="http://www.w3.org/2000/svg">
<path d="M17.2809 5.05884C17.2458 4.30578 16.9322 3.59262 16.4009 3.05775C16.1178 2.77147 15.7808 2.54399 15.4094 2.38837C15.0381 2.23276 14.6396 2.1521 14.2369 2.15101C13.8343 2.14993 13.4354 2.22845 13.0632 2.38206C12.691 2.53567 12.3528 2.76134 12.0681 3.04609C11.7834 3.33085 11.5578 3.66907 11.4043 4.04131C11.2507 4.41355 11.1723 4.81246 11.1735 5.21512C11.1746 5.61778 11.2554 6.01624 11.4111 6.38758C11.5668 6.75892 11.7943 7.09582 12.0807 7.37892L7.03993 12.4206C6.75684 12.1342 6.41993 11.9067 6.04859 11.751C5.67725 11.5953 5.27879 11.5146 4.87613 11.5134C4.47347 11.5122 4.07456 11.5907 3.70232 11.7442C3.33008 11.8977 2.99186 12.1233 2.7071 12.408C2.42235 12.6927 2.19668 13.0309 2.04307 13.4031C1.88946 13.7753 1.81094 14.1742 1.81202 14.5768C1.81311 14.9795 1.89377 15.378 2.04938 15.7494C2.205 16.1207 2.43248 16.4577 2.71876 16.7408C3.27426 17.2963 3.99293 17.5823 4.71985 17.6208C4.75835 18.3478 5.04435 19.0655 5.59985 19.6219C5.883 19.9082 6.21996 20.1357 6.59133 20.2913C6.96271 20.4469 7.36118 20.5276 7.76384 20.5287C8.1665 20.5297 8.5654 20.4512 8.93761 20.2976C9.30981 20.144 9.64799 19.9183 9.93268 19.6336C10.2174 19.3488 10.443 19.0106 10.5965 18.6384C10.75 18.2661 10.8285 17.8672 10.8273 17.4646C10.8261 17.0619 10.7454 16.6634 10.5897 16.2921C10.434 15.9208 10.2064 15.5838 9.9201 15.3008L14.9608 10.26C15.2439 10.5463 15.5808 10.7739 15.9522 10.9296C16.3235 11.0853 16.722 11.166 17.1246 11.1672C17.5273 11.1684 17.9262 11.0899 18.2985 10.9364C18.6707 10.7829 19.0089 10.5573 19.2937 10.2726C19.5784 9.98789 19.8041 9.64972 19.9577 9.27751C20.1113 8.9053 20.1898 8.5064 20.1888 8.10374C20.1877 7.70109 20.107 7.30261 19.9514 6.93124C19.7958 6.55986 19.5683 6.22291 19.282 5.93975C18.7475 5.40786 18.0342 5.09385 17.2809 5.05884Z" fill="black"/>
</svg>
