<svg width="11" height="14" viewBox="0 0 11 14" fill="none" xmlns="http://www.w3.org/2000/svg">
<path d="M10.5232 6.28604C10.5232 10.1591 5.54349 13.479 5.54349 13.479C5.54349 13.479 0.563782 10.1591 0.563782 6.28604C0.563782 4.96534 1.08843 3.69873 2.0223 2.76486C2.95618 1.83098 4.22279 1.30634 5.54349 1.30634C6.86419 1.30634 8.1308 1.83098 9.06467 2.76486C9.99855 3.69873 10.5232 4.96534 10.5232 6.28604Z" stroke="#3C3F41" stroke-width="0.948515" stroke-linecap="round" stroke-linejoin="round"/>
<path d="M5.54349 7.94594C6.46023 7.94594 7.20339 7.20278 7.20339 6.28604C7.20339 5.3693 6.46023 4.62614 5.54349 4.62614C4.62675 4.62614 3.88359 5.3693 3.88359 6.28604C3.88359 7.20278 4.62675 7.94594 5.54349 7.94594Z" stroke="#3C3F41" stroke-width="0.948515" stroke-linecap="round" stroke-linejoin="round"/>
</svg>
