<svg width="175" height="45" viewBox="0 0 175 45" fill="none" xmlns="http://www.w3.org/2000/svg">
<path d="M1.00847 31.7443C1.00847 30.6207 1.57366 29.8308 2.43167 29.2316C3.03092 28.857 3.18073 28.5574 2.65639 28.0331C1.49195 26.8346 0.892703 25.1798 0.892703 23.2323C0.892703 18.7311 4.0796 15.9188 10.1946 15.9188C10.8347 15.9188 11.468 15.9596 12.0332 15.9937C14.2804 16.0686 15.1861 15.0948 15.1861 13.8963C15.1861 12.548 12.8572 12.7319 12.7823 10.7843C12.7074 8.83679 14.2804 7.74725 15.9351 7.74725C17.5899 7.74725 19.4216 8.9117 19.4216 11.3836C19.4216 13.5218 18.0733 15.769 16.119 16.4091C15.6695 16.5589 15.4789 16.8245 16.0032 17.0832C18.2572 18.2068 19.4148 20.2701 19.4148 23.0484C19.4148 27.6585 16.2279 30.2121 10.1878 30.2121C8.24027 30.2121 6.62639 29.9466 5.27128 29.4222C5.00571 29.3065 4.74694 29.2724 4.48136 29.2724C4.06598 29.2724 3.73231 29.4222 3.69145 29.7219V29.7968C3.65059 30.8863 4.63118 32.2755 10.5964 32.2755C19.2242 32.2755 20.838 35.2376 20.838 38.1249C20.838 42.6261 16.296 44.989 9.3979 44.989C3.54845 44.989 0.320696 42.5103 0.0959792 39.9635C-0.0538322 38.3496 0.885894 37.4099 2.38401 37.4099C4.37241 37.4099 5.01251 38.4586 5.64581 39.4732C6.211 40.3721 8.27432 42.2107 13.0342 42.2107C17.0859 42.2107 19.3331 41.1211 19.3331 39.8069C19.3331 38.2339 17.12 37.6687 12.3192 37.2941C8.68289 37.0286 6.80344 36.8787 4.51541 36.2046C2.03672 35.4896 0.988038 33.6918 0.988038 31.7375L1.00847 31.7443ZM10.2014 29.0817C12.149 29.0817 13.3134 26.6031 13.3134 23.0416C13.3134 19.4802 12.149 17.0424 10.2014 17.0424C8.25389 17.0424 7.01454 19.4802 7.01454 23.0416C7.01454 26.6031 8.21303 29.0817 10.2014 29.0817Z" fill="#144353"/>
<path d="M30.5689 15.912C36.5341 15.912 40.0615 18.8741 40.0615 26.0038C40.0615 33.1335 36.5341 36.1705 30.5689 36.1705C24.6037 36.1705 20.9674 32.8338 20.9674 26.0038C20.9674 19.1738 24.6037 15.912 30.5689 15.912V15.912ZM30.528 35.0401C32.6663 35.0401 33.9397 32.6772 33.9397 25.997C33.9397 19.3168 32.6663 17.0287 30.528 17.0287C28.3898 17.0287 27.0756 19.3168 27.0756 25.997C27.0756 32.6772 28.3898 35.0401 30.528 35.0401Z" fill="#144353"/>
<path d="M84.0447 30.505C84.0447 33.2084 84.7189 34.5907 85.8833 34.7814C86.183 34.8223 86.3328 35.047 86.3328 35.3058C86.3328 35.5645 86.1421 35.7552 85.8833 35.7552H79.0193C78.5698 35.7552 78.3042 35.4147 78.3042 35.0402V32.9769C77.1058 35.0402 75.1923 36.1638 72.4888 36.1638C68.7027 36.1638 65.2502 33.3105 65.2502 25.997C65.2502 18.6835 68.6618 15.9052 72.4888 15.9052C75.1923 15.9052 77.1058 16.9947 78.3042 19.058V15.4558C78.3042 13.767 77.6301 12.6774 76.4657 12.5276C76.166 12.4868 76.0162 12.337 76.0162 12.0782C76.0162 11.7377 76.2069 11.6288 76.4657 11.5879C78.4541 11.3972 81.7159 10.4984 82.8803 8.85044C83.071 8.55081 83.3297 8.401 83.5953 8.401C83.8609 8.401 84.0447 8.59167 84.0447 8.85044V30.4914V30.505ZM74.8518 18.1251C72.6795 18.1251 71.3653 20.6379 71.3653 25.7791C71.3653 30.9204 72.6795 33.508 74.8518 33.508C77.024 33.508 78.3042 30.9953 78.3042 25.7791C78.3042 20.563 77.0309 18.1251 74.8518 18.1251Z" fill="#144353"/>
<path d="M94.2865 18.9559C95.4509 16.9675 97.2895 15.9188 99.8363 15.9188C104.147 15.9188 107.116 18.6222 107.116 26.0106C107.116 33.3991 104.004 36.1774 99.8363 36.1774C97.2827 36.1774 95.4509 35.1287 94.2865 33.1403V38.765C94.2865 41.5433 94.9606 42.1017 96.1251 42.2924C96.4247 42.3333 96.5745 42.558 96.5745 42.8167C96.5745 43.0755 96.3838 43.2662 96.1251 43.2662C94.2865 43.1913 92.8633 43.1164 91.4333 43.1164C90.0032 43.1164 88.546 43.1913 86.7074 43.2662C86.4418 43.2662 86.2579 43.0755 86.2579 42.8167V42.7759C86.2579 42.5103 86.4078 42.3265 86.7074 42.2856C87.8718 42.0949 88.546 41.5365 88.546 38.7582V22.4015C88.546 20.9375 87.8718 20.1476 86.7074 20.0386C86.4078 19.9978 86.2579 19.8139 86.2579 19.5483C86.2579 19.2827 86.4486 19.1329 86.7074 19.0989C88.6958 18.9082 91.9576 18.0094 93.122 16.3206C93.3127 16.055 93.5715 15.9052 93.837 15.9052C94.1026 15.9052 94.2865 16.0959 94.2865 16.3546V18.9423V18.9559ZM97.664 33.508C99.7614 33.508 101.001 30.9953 101.001 25.7042C101.001 20.4131 99.7614 17.9413 97.664 17.9413C95.5667 17.9413 94.2865 20.4949 94.2865 25.7042C94.2865 30.9136 95.5599 33.508 97.664 33.508Z" fill="#144353"/>
<path d="M120.469 22.027C120.469 19.1397 119.795 17.0356 117.541 17.0356C115.927 17.0356 115.063 18.2 115.103 19.3236C115.178 20.8966 113.605 21.7614 112.066 21.7614C110.643 21.7614 109.213 21.0124 109.213 19.3577C109.213 17.1854 112.141 15.9052 117.575 15.9052C124.439 15.9052 126.203 18.4588 126.203 21.7206V28.7753C126.203 31.9622 126.652 32.7113 127.402 32.7113C128.151 32.7113 128.375 31.9963 128.525 31.2132C128.566 30.9476 128.791 30.7637 129.09 30.7637C129.356 30.7637 129.54 30.9544 129.54 31.2132C129.465 33.1267 128.825 36.2046 124.698 36.2046C122.519 36.2046 121.436 35.2649 120.912 34.1073C120.687 33.6578 120.537 33.4331 120.388 33.4331C120.197 33.4331 120.047 33.6238 119.788 33.9983C118.815 35.3466 117.276 36.1706 114.913 36.1706C110.902 36.1706 108.008 34.1073 108.008 29.7219C108.008 24.8462 110.711 22.9327 115.137 22.9327C117.085 22.9327 118.399 22.9736 119.339 23.0485C120.013 23.0825 120.463 22.8578 120.463 22.1836V22.0338L120.469 22.027ZM119.23 24.0903L118.964 24.0495C115.478 24.0495 114.123 25.3229 114.123 28.9251C114.123 31.6626 115.321 33.2765 117.31 33.2765C119.788 33.2765 120.463 30.9136 120.463 29.1158V25.4795C120.463 24.7304 119.972 24.1652 119.339 24.0903H119.223H119.23Z" fill="#144353"/>
<path d="M138.556 34.8224C138.331 35.4966 137.732 35.9869 137.017 35.9869H136.676C135.961 35.9869 135.328 35.5374 135.103 34.8633L130.486 22.1497C129.172 18.5134 128.648 17.7644 127.184 17.5328C126.884 17.492 126.734 17.2332 126.734 16.9676C126.734 16.7021 126.925 16.5182 127.184 16.5182C129.206 16.5931 130.561 16.668 131.95 16.668C133.34 16.668 134.688 16.5931 136.676 16.5182C136.942 16.5182 137.126 16.7089 137.126 17.0085C137.126 17.2741 136.976 17.4239 136.676 17.4988C135.253 17.9142 135.628 18.9969 136.526 21.5845L138.814 28.0741C138.93 28.4146 139.08 28.5644 139.23 28.5644C139.42 28.5644 139.57 28.4146 139.645 28.0741L140.81 24.5876C141.3 23.0895 141.184 21.176 140.585 19.8617C139.87 18.3227 139.196 17.6826 138.222 17.5328C137.922 17.492 137.773 17.2332 137.773 16.9676C137.773 16.7021 137.963 16.5182 138.222 16.5182C140.244 16.5931 141.783 16.668 143.322 16.668C144.861 16.668 146.4 16.5931 148.389 16.5182C148.654 16.5182 148.838 16.7089 148.838 17.0085C148.838 17.2741 148.688 17.4239 148.389 17.4988C146.85 17.8733 146.666 18.9969 147.565 21.5845L149.812 28.0741C149.928 28.4146 150.078 28.5644 150.227 28.5644C150.418 28.5644 150.568 28.4146 150.643 28.0741L152.257 23.0077C153.496 19.1058 152.522 17.9074 150.908 17.5669C150.568 17.492 150.459 17.2264 150.459 17.0017V16.9608C150.459 16.6952 150.65 16.4705 150.908 16.5114C152.182 16.5863 153.121 16.6612 154.061 16.6612C155.001 16.6612 155.9 16.5863 157.173 16.5114C157.432 16.4705 157.623 16.7021 157.623 17.0017C157.623 17.2673 157.473 17.4511 157.173 17.5669C155.75 18.0572 154.844 18.1321 153.346 22.892L149.56 34.8224C149.335 35.4966 148.736 35.9869 148.021 35.9869H147.681C146.966 35.9869 146.332 35.5374 146.108 34.8633L142.955 26.1606C142.689 25.4456 142.389 25.1119 142.131 25.1119C141.831 25.1119 141.566 25.4864 141.341 26.2015L138.562 34.8292L138.556 34.8224Z" fill="#144353"/>
<path d="M157.425 27.7675C157.384 27.5019 157.575 27.318 157.875 27.318C158.14 27.318 158.399 27.4679 158.515 27.7334C159.904 30.9612 163.506 35.0469 166.652 35.0469C168.416 35.0469 169.24 34.1821 169.24 32.793C169.24 28.3667 157.875 26.7188 157.875 20.6038C157.875 17.2262 161.061 15.912 165.038 15.912C168.15 15.912 169.539 16.5521 170.929 16.5521C171.569 16.5521 171.827 16.4022 171.977 16.1775C172.093 15.9869 172.277 15.912 172.502 15.912C172.692 15.912 172.876 16.0277 172.876 16.1775L173.7 23.3072C173.734 23.5728 173.55 23.7566 173.251 23.7566C172.985 23.7566 172.726 23.6068 172.611 23.3412C171.072 20.1543 168.068 17.0424 165.556 17.0424C164.282 17.0424 163.343 17.6416 163.343 18.8401C163.343 22.6671 174.184 23.7566 174.184 30.6548C174.184 34.7814 170.697 36.1705 166.72 36.1705C163.118 36.1705 161.654 35.0061 160.496 35.0061C159.631 35.0061 159.298 35.2308 159.182 35.6053C159.141 35.796 158.916 35.8709 158.692 35.8709C158.426 35.8709 158.201 35.7551 158.201 35.6053L157.411 27.7675H157.425Z" fill="#144353"/>
<path d="M53.095 14.5432H52.4549C52.4549 14.5432 42.6968 14.5432 42.6968 27.3657C42.6968 38.9965 49.7651 34.7269 52.775 32.4389C55.7848 34.7201 62.8532 38.9965 62.8532 27.3657C62.8532 14.5432 53.095 14.5432 53.095 14.5432ZM52.0464 31.826C49.7856 29.9738 43.3301 23.8656 48.0764 20.8489C50.6163 19.2283 52.8363 23.0076 52.8363 23.0076C52.8363 23.0076 55.0426 19.2351 57.5962 20.8489C62.3493 23.8588 55.0971 30.6003 52.8363 32.4525C52.5298 32.221 52.2643 32.0031 52.0532 31.8328L52.0464 31.826Z" fill="#CD7474"/>
<path d="M42.7892 15.3631C44.0311 14.1212 43.6646 11.7412 41.9706 10.0472C40.2766 8.35319 37.8966 7.9867 36.6547 9.22861C35.4128 10.4705 35.7793 12.8505 37.4733 14.5445C39.1673 16.2385 41.5473 16.605 42.7892 15.3631Z" fill="#CD7474"/>
<path d="M48.6239 10.5203C50.5805 10.0844 51.6839 7.56464 51.0885 4.89227C50.4932 2.2199 48.4244 0.406889 46.4678 0.842798C44.5113 1.27871 43.4078 3.79847 44.0032 6.47084C44.5986 9.14321 46.6674 10.9562 48.6239 10.5203Z" fill="#CD7474"/>
<path d="M61.1936 6.29883C61.6658 3.60196 60.4479 1.13549 58.4734 0.789817C56.4989 0.444147 54.5155 2.35017 54.0433 5.04705C53.5712 7.74393 54.7891 10.2104 56.7636 10.5561C58.7381 10.9017 60.7215 8.99571 61.1936 6.29883Z" fill="#CD7474"/>
<path d="M66.7871 13.5389C67.7233 11.7071 67.3963 9.66717 66.0568 8.98258C64.7172 8.29799 62.8724 9.228 61.9362 11.0598C61.0001 12.8916 61.327 14.9316 62.6666 15.6162C64.0061 16.3008 65.851 15.3708 66.7871 13.5389Z" fill="#CD7474"/>
</svg>
