<svg width="14" height="15" viewBox="0 0 14 15" fill="none" xmlns="http://www.w3.org/2000/svg">
<g clip-path="url(#clip0_1341_19144)">
<path d="M11.6396 6.47544C11.6396 10.3357 6.67637 13.6446 6.67637 13.6446C6.67637 13.6446 1.71313 10.3357 1.71313 6.47544C1.71313 5.15911 2.23605 3.89669 3.16683 2.9659C4.09762 2.03512 5.36004 1.51221 6.67637 1.51221C7.9927 1.51221 9.25512 2.03512 10.1859 2.9659C11.1167 3.89669 11.6396 5.15911 11.6396 6.47544Z" stroke="#697172" stroke-width="0.735294" stroke-linecap="round" stroke-linejoin="round"/>
<path d="M6.67637 8.12985C7.59008 8.12985 8.33078 7.38915 8.33078 6.47544C8.33078 5.56174 7.59008 4.82103 6.67637 4.82103C5.76266 4.82103 5.02196 5.56174 5.02196 6.47544C5.02196 7.38915 5.76266 8.12985 6.67637 8.12985Z" stroke="#697172" stroke-width="0.735294" stroke-linecap="round" stroke-linejoin="round"/>
</g>
<defs>
<clipPath id="clip0_1341_19144">
<rect width="13.2353" height="13.2353" fill="white" transform="translate(0.0588379 0.960815)"/>
</clipPath>
</defs>
</svg>
