<svg width="40" height="40" viewBox="0 0 40 40" fill="none" xmlns="http://www.w3.org/2000/svg">
<g clip-path="url(#clip0_97_47468)">
<g filter="url(#filter0_f_97_47468)">
<ellipse cx="20" cy="33" rx="4" ry="2" fill="black" fill-opacity="0.12"/>
</g>
<mask id="path-3-outside-1_97_47468" maskUnits="userSpaceOnUse" x="9" y="5" width="22" height="28" fill="black">
<rect fill="white" x="9" y="5" width="22" height="28"/>
<path fill-rule="evenodd" clip-rule="evenodd" d="M25.9159 24.0632C28.3926 22.243 30 19.3092 30 16C30 10.4772 25.5228 6 20 6C14.4772 6 10 10.4772 10 16C10 19.3092 11.6074 22.243 14.0841 24.0632C15.9661 25.4813 18.619 27.7185 19.2288 31.3195C19.2934 31.701 19.6131 31.997 20 31.997C20.3869 31.997 20.7066 31.701 20.7712 31.3195C21.381 27.7185 24.0339 25.4813 25.9159 24.0632Z"/>
</mask>
<path fill-rule="evenodd" clip-rule="evenodd" d="M25.9159 24.0632C28.3926 22.243 30 19.3092 30 16C30 10.4772 25.5228 6 20 6C14.4772 6 10 10.4772 10 16C10 19.3092 11.6074 22.243 14.0841 24.0632C15.9661 25.4813 18.619 27.7185 19.2288 31.3195C19.2934 31.701 19.6131 31.997 20 31.997C20.3869 31.997 20.7066 31.701 20.7712 31.3195C21.381 27.7185 24.0339 25.4813 25.9159 24.0632Z" fill="#F1554B"/>
<path d="M25.9159 24.0632L25.3237 23.2573L25.3141 23.2645L25.9159 24.0632ZM14.0841 24.0632L14.6859 23.2645L14.6763 23.2574L14.0841 24.0632ZM19.2288 31.3195L18.2428 31.4865H18.2428L19.2288 31.3195ZM20.7712 31.3195L21.7572 31.4865H21.7572L20.7712 31.3195ZM26.5081 24.869C29.2301 22.8685 31 19.6409 31 16H29C29 18.9776 27.555 21.6175 25.3237 23.2574L26.5081 24.869ZM31 16C31 9.92487 26.0751 5 20 5V7C24.9706 7 29 11.0294 29 16H31ZM20 5C13.9249 5 9 9.92487 9 16H11C11 11.0294 15.0294 7 20 7V5ZM9 16C9 19.6409 10.7699 22.8685 13.4919 24.869L14.6763 23.2574C12.445 21.6175 11 18.9776 11 16H9ZM20.2147 31.1526C19.5345 27.1359 16.5819 24.6933 14.6859 23.2645L13.4823 24.8618C15.3502 26.2694 17.7034 28.3011 18.2428 31.4865L20.2147 31.1526ZM20 30.997C20.0686 30.997 20.1251 31.0246 20.1593 31.0551C20.1912 31.0836 20.2089 31.118 20.2147 31.1526L18.2428 31.4865C18.3809 32.3017 19.0789 32.997 20 32.997V30.997ZM19.7853 31.1526C19.7911 31.118 19.8088 31.0836 19.8407 31.0551C19.8749 31.0246 19.9314 30.997 20 30.997V32.997C20.9211 32.997 21.6191 32.3017 21.7572 31.4865L19.7853 31.1526ZM25.3141 23.2645C23.4181 24.6933 20.4655 27.1359 19.7853 31.1526L21.7572 31.4865C22.2966 28.3011 24.6498 26.2694 26.5177 24.8618L25.3141 23.2645Z" fill="url(#paint0_linear_97_47468)" mask="url(#path-3-outside-1_97_47468)"/>
<circle cx="20" cy="16" r="4" fill="black" fill-opacity="0.4"/>
</g>
<defs>
<filter id="filter0_f_97_47468" x="14" y="29" width="12" height="8" filterUnits="userSpaceOnUse" color-interpolation-filters="sRGB">
<feFlood flood-opacity="0" result="BackgroundImageFix"/>
<feBlend mode="normal" in="SourceGraphic" in2="BackgroundImageFix" result="shape"/>
<feGaussianBlur stdDeviation="1" result="effect1_foregroundBlur_97_47468"/>
</filter>
<linearGradient id="paint0_linear_97_47468" x1="20" y1="6" x2="20" y2="31.9969" gradientUnits="userSpaceOnUse">
<stop stop-color="white"/>
<stop offset="1" stop-color="white" stop-opacity="0.35"/>
</linearGradient>
<clipPath id="clip0_97_47468">
<rect width="24" height="32" fill="white" transform="translate(8 4)"/>
</clipPath>
</defs>
</svg>
