<svg width="177" height="48" viewBox="0 0 177 48" fill="none" xmlns="http://www.w3.org/2000/svg">
<path d="M13.2775 22.3183C14.0998 19.25 17.2537 16.0961 20.322 15.2739L39.4509 10.1475C42.5192 9.32522 44.3399 11.146 43.5177 14.2142L38.3913 33.3432C37.569 36.4115 34.4151 39.5654 31.3469 40.3877L12.2179 45.514C9.14963 46.3363 7.32888 44.5155 8.15115 41.4473L13.2775 22.3183Z" fill="#E18D83"/>
<path d="M5.60882 14.6493C6.43108 11.5811 9.58498 8.42717 12.6533 7.60491L31.7822 2.47854C34.8505 1.65628 36.6713 3.47702 35.849 6.54529L30.7226 25.6743C29.9004 28.7425 26.7465 31.8964 23.6782 32.7187L4.5492 37.8451C1.48093 38.6673 -0.339816 36.8466 0.482448 33.7783L5.60882 14.6493Z" fill="#BF716A"/>
<path d="M71.0227 19.4205C70.9318 18.5038 70.5417 17.7917 69.8523 17.2841C69.1629 16.7765 68.2273 16.5227 67.0455 16.5227C66.2424 16.5227 65.5644 16.6364 65.0114 16.8636C64.4583 17.0833 64.0341 17.3902 63.7386 17.7841C63.4508 18.178 63.3068 18.625 63.3068 19.125C63.2917 19.5417 63.3788 19.9053 63.5682 20.2159C63.7652 20.5265 64.0341 20.7955 64.375 21.0227C64.7159 21.2424 65.1098 21.4356 65.5568 21.6023C66.0038 21.7614 66.4811 21.8977 66.9886 22.0114L69.0795 22.5114C70.0947 22.7386 71.0265 23.0417 71.875 23.4205C72.7235 23.7992 73.4583 24.2652 74.0795 24.8182C74.7008 25.3712 75.1818 26.0227 75.5227 26.7727C75.8712 27.5227 76.0492 28.3826 76.0568 29.3523C76.0492 30.7765 75.6856 32.0114 74.9659 33.0568C74.2538 34.0947 73.2235 34.9015 71.875 35.4773C70.5341 36.0455 68.9167 36.3295 67.0227 36.3295C65.1439 36.3295 63.5076 36.0417 62.1136 35.4659C60.7273 34.8902 59.6439 34.0379 58.8636 32.9091C58.0909 31.7727 57.6856 30.3674 57.6477 28.6932H62.4091C62.4621 29.4735 62.6856 30.125 63.0795 30.6477C63.4811 31.1629 64.0152 31.553 64.6818 31.8182C65.3561 32.0758 66.1174 32.2045 66.9659 32.2045C67.7992 32.2045 68.5227 32.0833 69.1364 31.8409C69.7576 31.5985 70.2386 31.2614 70.5795 30.8295C70.9205 30.3977 71.0909 29.9015 71.0909 29.3409C71.0909 28.8182 70.9356 28.3788 70.625 28.0227C70.322 27.6667 69.875 27.3636 69.2841 27.1136C68.7008 26.8636 67.9848 26.6364 67.1364 26.4318L64.6023 25.7955C62.6402 25.3182 61.0909 24.572 59.9545 23.5568C58.8182 22.5417 58.2538 21.1742 58.2614 19.4545C58.2538 18.0455 58.6288 16.8144 59.3864 15.7614C60.1515 14.7083 61.2008 13.8864 62.5341 13.2955C63.8674 12.7045 65.3826 12.4091 67.0795 12.4091C68.8068 12.4091 70.3144 12.7045 71.6023 13.2955C72.8977 13.8864 73.9053 14.7083 74.625 15.7614C75.3447 16.8144 75.7159 18.0341 75.7386 19.4205H71.0227ZM84.1165 25.9091V36H79.2756V12.7273H83.9801V21.625H84.1847C84.5786 20.5947 85.215 19.7879 86.0938 19.2045C86.9725 18.6136 88.0748 18.3182 89.4006 18.3182C90.6127 18.3182 91.6695 18.5833 92.571 19.1136C93.4801 19.6364 94.1847 20.3902 94.6847 21.375C95.1922 22.3523 95.4422 23.5227 95.4347 24.8864V36H90.5938V25.75C90.6013 24.6742 90.3286 23.8371 89.7756 23.2386C89.2301 22.6402 88.465 22.3409 87.4801 22.3409C86.821 22.3409 86.2377 22.4811 85.7301 22.7614C85.2301 23.0417 84.8362 23.4508 84.5483 23.9886C84.268 24.5189 84.1241 25.1591 84.1165 25.9091ZM107.199 36.3409C105.403 36.3409 103.858 35.9773 102.562 35.25C101.275 34.5152 100.282 33.4773 99.5852 32.1364C98.8883 30.7879 98.5398 29.1932 98.5398 27.3523C98.5398 25.5568 98.8883 23.9811 99.5852 22.625C100.282 21.2689 101.263 20.2121 102.528 19.4545C103.801 18.697 105.294 18.3182 107.006 18.3182C108.157 18.3182 109.229 18.5038 110.222 18.875C111.222 19.2386 112.093 19.7879 112.835 20.5227C113.585 21.2576 114.169 22.1818 114.585 23.2955C115.002 24.4015 115.21 25.697 115.21 27.1818V28.5114H100.472V25.5114H110.653C110.653 24.8144 110.502 24.197 110.199 23.6591C109.896 23.1212 109.475 22.7008 108.938 22.3977C108.407 22.0871 107.79 21.9318 107.085 21.9318C106.35 21.9318 105.699 22.1023 105.131 22.4432C104.57 22.7765 104.131 23.2273 103.812 23.7955C103.494 24.3561 103.331 24.9811 103.324 25.6705V28.5227C103.324 29.3864 103.483 30.1326 103.801 30.7614C104.127 31.3902 104.585 31.875 105.176 32.2159C105.767 32.5568 106.468 32.7273 107.278 32.7273C107.816 32.7273 108.309 32.6515 108.756 32.5C109.203 32.3485 109.585 32.1212 109.903 31.8182C110.222 31.5152 110.464 31.1439 110.631 30.7045L115.108 31C114.881 32.0758 114.415 33.0152 113.71 33.8182C113.013 34.6136 112.112 35.2348 111.006 35.6818C109.907 36.1212 108.638 36.3409 107.199 36.3409ZM123.21 12.7273V36H118.369V12.7273H123.21ZM136.372 18.5455V22.1818H125.861V18.5455H136.372ZM128.247 14.3636H133.088V30.6364C133.088 31.0833 133.156 31.4318 133.293 31.6818C133.429 31.9242 133.618 32.0947 133.861 32.1932C134.111 32.2917 134.399 32.3409 134.724 32.3409C134.952 32.3409 135.179 32.322 135.406 32.2841C135.634 32.2386 135.808 32.2045 135.929 32.1818L136.69 35.7841C136.448 35.8598 136.107 35.947 135.668 36.0455C135.228 36.1515 134.694 36.2159 134.065 36.2386C132.899 36.2841 131.876 36.1288 130.997 35.7727C130.126 35.4167 129.448 34.8636 128.963 34.1136C128.478 33.3636 128.24 32.4167 128.247 31.2727V14.3636ZM147.293 36.3409C145.497 36.3409 143.952 35.9773 142.656 35.25C141.368 34.5152 140.376 33.4773 139.679 32.1364C138.982 30.7879 138.634 29.1932 138.634 27.3523C138.634 25.5568 138.982 23.9811 139.679 22.625C140.376 21.2689 141.357 20.2121 142.622 19.4545C143.895 18.697 145.387 18.3182 147.099 18.3182C148.251 18.3182 149.323 18.5038 150.315 18.875C151.315 19.2386 152.187 19.7879 152.929 20.5227C153.679 21.2576 154.262 22.1818 154.679 23.2955C155.096 24.4015 155.304 25.697 155.304 27.1818V28.5114H140.565V25.5114H150.747C150.747 24.8144 150.596 24.197 150.293 23.6591C149.99 23.1212 149.569 22.7008 149.031 22.3977C148.501 22.0871 147.884 21.9318 147.179 21.9318C146.444 21.9318 145.793 22.1023 145.224 22.4432C144.664 22.7765 144.224 23.2273 143.906 23.7955C143.588 24.3561 143.425 24.9811 143.418 25.6705V28.5227C143.418 29.3864 143.577 30.1326 143.895 30.7614C144.221 31.3902 144.679 31.875 145.27 32.2159C145.861 32.5568 146.562 32.7273 147.372 32.7273C147.91 32.7273 148.402 32.6515 148.849 32.5C149.296 32.3485 149.679 32.1212 149.997 31.8182C150.315 31.5152 150.558 31.1439 150.724 30.7045L155.202 31C154.974 32.0758 154.509 33.0152 153.804 33.8182C153.107 34.6136 152.205 35.2348 151.099 35.6818C150.001 36.1212 148.732 36.3409 147.293 36.3409ZM158.463 36V18.5455H163.156V21.5909H163.338C163.656 20.5076 164.19 19.6894 164.94 19.1364C165.69 18.5758 166.554 18.2955 167.531 18.2955C167.774 18.2955 168.035 18.3106 168.315 18.3409C168.596 18.3712 168.842 18.4129 169.054 18.4659V22.7614C168.827 22.6932 168.512 22.6326 168.111 22.5795C167.709 22.5265 167.342 22.5 167.009 22.5C166.296 22.5 165.66 22.6553 165.099 22.9659C164.546 23.2689 164.107 23.6932 163.781 24.2386C163.463 24.7841 163.304 25.4129 163.304 26.125V36H158.463Z" fill="black"/>
</svg>
