<svg width="178" height="48" viewBox="0 0 178 48" fill="none" xmlns="http://www.w3.org/2000/svg">
<path d="M14.0275 22.3182C14.8498 19.25 18.0037 16.0961 21.072 15.2738L40.2009 10.1474C43.2692 9.32516 45.0899 11.1459 44.2677 14.2142L39.1413 33.3432C38.319 36.4114 35.1651 39.5653 32.0969 40.3876L12.9679 45.514C9.89963 46.3362 8.07888 44.5155 8.90115 41.4472L14.0275 22.3182Z" fill="#E18D83"/>
<path d="M6.35882 14.6493C7.18108 11.5811 10.335 8.42717 13.4033 7.60491L32.5322 2.47854C35.6005 1.65628 37.4213 3.47702 36.599 6.54529L31.4726 25.6743C30.6504 28.7425 27.4965 31.8964 24.4282 32.7187L5.2992 37.8451C2.23093 38.6673 0.410184 36.8466 1.23245 33.7783L6.35882 14.6493Z" fill="#BF716A"/>
<path d="M71.7727 19.4205C71.6818 18.5038 71.2917 17.7917 70.6023 17.2841C69.9129 16.7765 68.9773 16.5227 67.7955 16.5227C66.9924 16.5227 66.3144 16.6364 65.7614 16.8636C65.2083 17.0833 64.7841 17.3902 64.4886 17.7841C64.2008 18.178 64.0568 18.625 64.0568 19.125C64.0417 19.5417 64.1288 19.9053 64.3182 20.2159C64.5152 20.5265 64.7841 20.7955 65.125 21.0227C65.4659 21.2424 65.8598 21.4356 66.3068 21.6023C66.7538 21.7614 67.2311 21.8977 67.7386 22.0114L69.8295 22.5114C70.8447 22.7386 71.7765 23.0417 72.625 23.4205C73.4735 23.7992 74.2083 24.2652 74.8295 24.8182C75.4508 25.3712 75.9318 26.0227 76.2727 26.7727C76.6212 27.5227 76.7992 28.3826 76.8068 29.3523C76.7992 30.7765 76.4356 32.0114 75.7159 33.0568C75.0038 34.0947 73.9735 34.9015 72.625 35.4773C71.2841 36.0455 69.6667 36.3295 67.7727 36.3295C65.8939 36.3295 64.2576 36.0417 62.8636 35.4659C61.4773 34.8902 60.3939 34.0379 59.6136 32.9091C58.8409 31.7727 58.4356 30.3674 58.3977 28.6932H63.1591C63.2121 29.4735 63.4356 30.125 63.8295 30.6477C64.2311 31.1629 64.7652 31.553 65.4318 31.8182C66.1061 32.0758 66.8674 32.2045 67.7159 32.2045C68.5492 32.2045 69.2727 32.0833 69.8864 31.8409C70.5076 31.5985 70.9886 31.2614 71.3295 30.8295C71.6705 30.3977 71.8409 29.9015 71.8409 29.3409C71.8409 28.8182 71.6856 28.3788 71.375 28.0227C71.072 27.6667 70.625 27.3636 70.0341 27.1136C69.4508 26.8636 68.7348 26.6364 67.8864 26.4318L65.3523 25.7955C63.3902 25.3182 61.8409 24.572 60.7045 23.5568C59.5682 22.5417 59.0038 21.1742 59.0114 19.4545C59.0038 18.0455 59.3788 16.8144 60.1364 15.7614C60.9015 14.7083 61.9508 13.8864 63.2841 13.2955C64.6174 12.7045 66.1326 12.4091 67.8295 12.4091C69.5568 12.4091 71.0644 12.7045 72.3523 13.2955C73.6477 13.8864 74.6553 14.7083 75.375 15.7614C76.0947 16.8144 76.4659 18.0341 76.4886 19.4205H71.7727ZM84.8665 25.9091V36H80.0256V12.7273H84.7301V21.625H84.9347C85.3286 20.5947 85.965 19.7879 86.8438 19.2045C87.7225 18.6136 88.8248 18.3182 90.1506 18.3182C91.3627 18.3182 92.4195 18.5833 93.321 19.1136C94.2301 19.6364 94.9347 20.3902 95.4347 21.375C95.9422 22.3523 96.1922 23.5227 96.1847 24.8864V36H91.3438V25.75C91.3513 24.6742 91.0786 23.8371 90.5256 23.2386C89.9801 22.6402 89.215 22.3409 88.2301 22.3409C87.571 22.3409 86.9877 22.4811 86.4801 22.7614C85.9801 23.0417 85.5862 23.4508 85.2983 23.9886C85.018 24.5189 84.8741 25.1591 84.8665 25.9091ZM107.949 36.3409C106.153 36.3409 104.608 35.9773 103.312 35.25C102.025 34.5152 101.032 33.4773 100.335 32.1364C99.6383 30.7879 99.2898 29.1932 99.2898 27.3523C99.2898 25.5568 99.6383 23.9811 100.335 22.625C101.032 21.2689 102.013 20.2121 103.278 19.4545C104.551 18.697 106.044 18.3182 107.756 18.3182C108.907 18.3182 109.979 18.5038 110.972 18.875C111.972 19.2386 112.843 19.7879 113.585 20.5227C114.335 21.2576 114.919 22.1818 115.335 23.2955C115.752 24.4015 115.96 25.697 115.96 27.1818V28.5114H101.222V25.5114H111.403C111.403 24.8144 111.252 24.197 110.949 23.6591C110.646 23.1212 110.225 22.7008 109.688 22.3977C109.157 22.0871 108.54 21.9318 107.835 21.9318C107.1 21.9318 106.449 22.1023 105.881 22.4432C105.32 22.7765 104.881 23.2273 104.562 23.7955C104.244 24.3561 104.081 24.9811 104.074 25.6705V28.5227C104.074 29.3864 104.233 30.1326 104.551 30.7614C104.877 31.3902 105.335 31.875 105.926 32.2159C106.517 32.5568 107.218 32.7273 108.028 32.7273C108.566 32.7273 109.059 32.6515 109.506 32.5C109.953 32.3485 110.335 32.1212 110.653 31.8182C110.972 31.5152 111.214 31.1439 111.381 30.7045L115.858 31C115.631 32.0758 115.165 33.0152 114.46 33.8182C113.763 34.6136 112.862 35.2348 111.756 35.6818C110.657 36.1212 109.388 36.3409 107.949 36.3409ZM123.96 12.7273V36H119.119V12.7273H123.96ZM137.122 18.5455V22.1818H126.611V18.5455H137.122ZM128.997 14.3636H133.838V30.6364C133.838 31.0833 133.906 31.4318 134.043 31.6818C134.179 31.9242 134.368 32.0947 134.611 32.1932C134.861 32.2917 135.149 32.3409 135.474 32.3409C135.702 32.3409 135.929 32.322 136.156 32.2841C136.384 32.2386 136.558 32.2045 136.679 32.1818L137.44 35.7841C137.198 35.8598 136.857 35.947 136.418 36.0455C135.978 36.1515 135.444 36.2159 134.815 36.2386C133.649 36.2841 132.626 36.1288 131.747 35.7727C130.876 35.4167 130.198 34.8636 129.713 34.1136C129.228 33.3636 128.99 32.4167 128.997 31.2727V14.3636ZM148.043 36.3409C146.247 36.3409 144.702 35.9773 143.406 35.25C142.118 34.5152 141.126 33.4773 140.429 32.1364C139.732 30.7879 139.384 29.1932 139.384 27.3523C139.384 25.5568 139.732 23.9811 140.429 22.625C141.126 21.2689 142.107 20.2121 143.372 19.4545C144.645 18.697 146.137 18.3182 147.849 18.3182C149.001 18.3182 150.073 18.5038 151.065 18.875C152.065 19.2386 152.937 19.7879 153.679 20.5227C154.429 21.2576 155.012 22.1818 155.429 23.2955C155.846 24.4015 156.054 25.697 156.054 27.1818V28.5114H141.315V25.5114H151.497C151.497 24.8144 151.346 24.197 151.043 23.6591C150.74 23.1212 150.319 22.7008 149.781 22.3977C149.251 22.0871 148.634 21.9318 147.929 21.9318C147.194 21.9318 146.543 22.1023 145.974 22.4432C145.414 22.7765 144.974 23.2273 144.656 23.7955C144.338 24.3561 144.175 24.9811 144.168 25.6705V28.5227C144.168 29.3864 144.327 30.1326 144.645 30.7614C144.971 31.3902 145.429 31.875 146.02 32.2159C146.611 32.5568 147.312 32.7273 148.122 32.7273C148.66 32.7273 149.152 32.6515 149.599 32.5C150.046 32.3485 150.429 32.1212 150.747 31.8182C151.065 31.5152 151.308 31.1439 151.474 30.7045L155.952 31C155.724 32.0758 155.259 33.0152 154.554 33.8182C153.857 34.6136 152.955 35.2348 151.849 35.6818C150.751 36.1212 149.482 36.3409 148.043 36.3409ZM159.213 36V18.5455H163.906V21.5909H164.088C164.406 20.5076 164.94 19.6894 165.69 19.1364C166.44 18.5758 167.304 18.2955 168.281 18.2955C168.524 18.2955 168.785 18.3106 169.065 18.3409C169.346 18.3712 169.592 18.4129 169.804 18.4659V22.7614C169.577 22.6932 169.262 22.6326 168.861 22.5795C168.459 22.5265 168.092 22.5 167.759 22.5C167.046 22.5 166.41 22.6553 165.849 22.9659C165.296 23.2689 164.857 23.6932 164.531 24.2386C164.213 24.7841 164.054 25.4129 164.054 26.125V36H159.213Z" fill="black"/>
</svg>
